<?xml version="1.0" standalone="no"?>
<!DOCTYPE svg PUBLIC "-//W3C//DTD SVG 20010904//EN"
 "http://www.w3.org/TR/2001/REC-SVG-20010904/DTD/svg10.dtd">
<svg version="1.0" xmlns="http://www.w3.org/2000/svg"
 width="700.000000pt" height="700.000000pt" viewBox="0 0 700.000000 700.000000"
 preserveAspectRatio="xMidYMid meet">
<metadata>
Created by potrace 1.14, written by Peter Selinger 2001-2017
</metadata>
<g transform="translate(0.000000,700.000000) scale(0.100000,-0.100000)"
fill="#000000" stroke="none">
<path d="M3068 6995 c-2 -1 -73 -6 -158 -9 -85 -4 -180 -9 -210 -12 -30 -2
-84 -6 -120 -9 -91 -6 -189 -15 -230 -20 -19 -3 -62 -7 -95 -10 -33 -3 -73 -8
-90 -10 -16 -2 -52 -7 -80 -10 -27 -4 -61 -8 -75 -10 -14 -3 -43 -7 -65 -10
-590 -89 -1016 -216 -1252 -371 -185 -123 -281 -302 -248 -464 25 -118 183
-428 281 -549 7 -9 38 -47 69 -86 112 -139 316 -334 490 -470 45 -34 51 -44
43 -59 -17 -30 -17 -118 0 -161 19 -49 56 -91 103 -115 42 -22 372 -118 464
-136 105 -20 112 -24 445 -242 512 -336 735 -580 744 -812 5 -135 -43 -246
-204 -467 -47 -64 -47 -64 -165 -87 -62 -12 -154 -40 -187 -57 -146 -75 -161
-261 -30 -374 l23 -20 -33 -65 c-89 -172 -176 -418 -213 -601 -2 -8 -17 -35
-33 -60 -59 -87 -69 -194 -26 -269 20 -35 27 -63 30 -124 23 -387 197 -781
473 -1070 85 -88 83 -87 117 -116 115 -101 173 -126 258 -115 75 9 125 47 163
125 17 36 65 133 106 216 145 296 368 585 607 789 30 26 66 57 80 69 14 12 43
35 65 51 22 17 42 33 45 36 16 20 345 235 496 324 98 58 186 110 194 115 8 5
44 26 80 46 171 98 494 296 510 314 3 3 19 14 35 24 98 63 312 253 400 356
192 227 309 496 343 790 14 127 8 387 -12 530 -20 135 -21 125 20 161 90 81
117 128 117 204 0 118 -94 216 -209 218 -41 0 -42 1 -47 36 -9 69 2 316 17
381 36 150 62 207 197 445 128 222 195 384 225 540 2 11 8 43 14 70 20 100 27
280 15 351 -21 117 -115 238 -258 332 -43 29 -80 52 -82 52 -2 0 -41 17 -87
39 -200 93 -462 168 -828 235 -102 19 -210 37 -240 41 -30 3 -62 8 -70 10 -8
2 -40 6 -71 10 -31 3 -65 7 -76 9 -10 2 -50 7 -88 10 -39 4 -88 9 -110 11
-122 14 -231 23 -370 30 -66 4 -140 9 -165 12 -51 5 -1037 13 -1042 8z m792
-439 c135 -4 265 -9 290 -11 25 -2 92 -6 150 -10 58 -3 121 -8 140 -10 19 -2
69 -6 110 -10 41 -4 89 -8 105 -10 17 -2 57 -6 90 -10 33 -3 71 -8 85 -10 14
-2 43 -6 65 -9 37 -5 58 -8 155 -21 19 -3 58 -9 85 -15 28 -5 66 -12 85 -15
19 -3 78 -15 131 -26 52 -11 105 -21 118 -24 12 -2 31 -7 41 -10 10 -3 27 -7
37 -9 61 -12 219 -62 332 -106 88 -34 129 -55 194 -98 l38 -25 -28 -23 c-15
-13 -32 -23 -37 -24 -5 0 -17 -6 -25 -14 -22 -18 -167 -78 -281 -116 -195 -64
-570 -143 -835 -174 -27 -4 -84 -11 -125 -16 -153 -19 -293 -32 -480 -45 -84
-6 -295 -17 -375 -21 -106 -4 -763 -4 -840 0 -33 2 -127 7 -210 11 -82 4 -166
8 -185 10 -19 1 -78 6 -130 10 -52 3 -106 8 -120 10 -26 4 -92 11 -182 20 -29
3 -70 8 -91 11 -47 7 -68 10 -142 18 -33 4 -68 10 -78 12 -10 3 -30 7 -45 9
-44 6 -91 14 -202 36 -58 12 -115 23 -126 25 -162 31 -411 111 -539 174 -117
58 -140 74 -132 94 9 22 217 120 337 160 88 28 272 78 343 92 10 2 26 5 35 8
9 3 33 8 52 11 19 3 80 14 135 25 55 10 125 21 155 25 30 4 57 8 60 10 3 2 39
6 80 10 41 4 77 8 80 10 3 1 37 6 75 9 39 4 77 9 85 11 8 2 56 7 105 10 50 4
104 8 120 10 39 3 200 15 290 20 39 3 176 7 305 11 129 3 236 7 237 8 3 2 209
-2 463 -8z m2120 -994 c0 -4 -30 -60 -66 -123 -206 -357 -268 -560 -268 -874
0 -131 10 -252 30 -355 8 -41 14 -84 14 -95 0 -23 -15 -33 -185 -120 -339
-174 -702 -265 -1097 -275 -133 -4 -216 -61 -243 -167 -25 -97 20 -196 110
-245 48 -26 52 -26 195 -23 80 3 154 6 165 9 11 2 51 7 88 11 37 3 76 8 85 10
9 1 58 10 107 19 128 24 362 87 430 116 11 4 63 25 116 45 53 20 145 61 205
90 79 39 111 50 117 42 4 -7 6 -91 3 -187 -4 -142 -9 -193 -29 -271 -47 -183
-130 -328 -269 -471 -173 -177 -336 -289 -883 -603 -572 -328 -900 -575 -1190
-895 -123 -136 -289 -366 -370 -515 -56 -102 -53 -100 -86 -57 -16 20 -38 48
-49 62 -34 44 -118 202 -149 283 -40 106 -66 217 -76 334 l-5 61 53 -25 c76
-37 142 -39 209 -5 158 80 160 299 3 386 -22 12 -76 37 -120 55 -44 18 -81 34
-83 36 -5 5 53 165 94 258 48 108 126 251 185 338 l38 56 83 -13 c46 -7 92
-15 103 -18 11 -2 76 -18 145 -35 186 -45 258 -55 400 -55 127 0 214 11 337
44 157 41 214 84 239 180 30 118 -45 243 -162 266 -54 11 -75 9 -184 -23 -83
-24 -112 -27 -230 -27 -111 1 -155 5 -250 28 -63 15 -123 29 -133 31 -38 9
-58 17 -55 23 150 286 190 444 165 659 -9 72 -55 221 -86 276 -12 20 -30 54
-42 75 -56 100 -186 248 -334 381 l-60 53 65 -6 c254 -25 797 -25 1030 -2 19
2 69 7 110 10 82 8 134 14 165 21 11 2 47 7 80 11 33 3 63 8 66 10 3 1 36 8
73 14 83 13 133 37 173 84 89 100 63 252 -55 327 -41 26 -55 30 -112 28 -36
-1 -81 -6 -100 -10 -47 -11 -84 -17 -139 -25 -25 -3 -57 -8 -71 -10 -14 -2
-54 -6 -90 -9 -36 -3 -76 -8 -90 -10 -165 -30 -826 -24 -1155 9 -33 4 -85 9
-115 12 -30 3 -66 7 -80 9 -14 3 -47 7 -75 10 -27 3 -103 15 -169 26 -315 52
-320 53 -410 111 -110 71 -290 190 -296 197 -3 3 -32 24 -64 46 -33 22 -64 44
-70 50 -6 5 -38 30 -71 55 -33 24 -65 49 -71 55 -7 5 -30 25 -52 43 -22 18
-58 48 -79 67 l-38 33 60 -14 c97 -23 253 -54 395 -78 95 -17 119 -20 240 -36
47 -6 99 -12 115 -15 17 -2 62 -7 100 -10 39 -3 77 -8 85 -10 8 -2 53 -7 100
-10 47 -3 108 -8 135 -10 216 -21 482 -30 910 -30 382 0 681 8 800 20 22 2 78
7 125 10 90 7 101 8 225 20 44 4 94 9 110 11 65 6 170 20 305 39 40 6 223 36
248 41 12 2 34 6 50 9 15 3 38 8 52 11 14 3 36 8 50 10 75 13 328 80 410 108
112 39 110 38 110 28z"/>
</g>
</svg>
